{
  "streams": [
    {
      "index": 0,
      "codec_name": "prores",
      "codec_long_name": "ProRes",
      "profile": "unknown",
      "codec_type": "video",
      "codec_time_base": "1/60000",
      "codec_tag_string": "apcn",
      "codec_tag": "0x6e637061",
      "width": 1280,
      "height": 720,
      "coded_width": 1280,
      "coded_height": 720,
      "has_b_frames": 0,
      "sample_aspect_ratio": "1:1",
      "display_aspect_ratio": "16:9",
      "pix_fmt": "yuv422p10le",
      "level": "-99",
      "color_range": "N/A",
      "color_space": "bt709",
      "color_transfer": "bt709",
      "color_primaries": "bt709",
      "chroma_location": "unspecified",
      "timecode": "N/A",
      "refs": 1,
      "id": "N/A",
      "r_frame_rate": "60000/1001",
      "avg_frame_rate": "27418000/457457",
      "time_base": "1/60000",
      "start_pts": 0,
      "start_time": 0,
      "duration_ts": 137237100,
      "duration": 2287.285,
      "bit_rate": 164973700,
      "max_bit_rate": "N/A",
      "bits_per_raw_sample": 10,
      "nb_frames": 137090,
      "nb_read_frames": "N/A",
      "nb_read_packets": "N/A",
      "tags": {
        "creation_time": "2016-02-18 16:38:20",
        "language": "eng",
        "handler_name": "Apple Alias Data Handler",
        "encoder": "ProRes 422",
        "timecode": "00:01:18:56"
      },
      "disposition": {
        "default": 1,
        "dub": 0,
        "original": 0,
        "comment": 0,
        "lyrics": 0,
        "karaoke": 0,
        "forced": 0,
        "hearing_impaired": 0,
        "visual_impaired": 0,
        "clean_effects": 0,
        "attached_pic": 0
      }
    },
    {
      "index": 1,
      "codec_name": "pcm_s16le",
      "codec_long_name": "PCM signed 16-bit little-endian",
      "profile": "unknown",
      "codec_type": "audio",
      "codec_time_base": "1/48000",
      "codec_tag_string": "sowt",
      "codec_tag": "0x74776f73",
      "sample_fmt": "s16",
      "sample_rate": 48000,
      "channels": 2,
      "channel_layout": "unknown",
      "bits_per_sample": 16,
      "id": "N/A",
      "r_frame_rate": "0/0",
      "avg_frame_rate": "0/0",
      "time_base": "1/48000",
      "start_pts": 0,
      "start_time": 0,
      "duration_ts": 109789680,
      "duration": 2287.285,
      "bit_rate": 1536000,
      "max_bit_rate": "N/A",
      "bits_per_raw_sample": "N/A",
      "nb_frames": 109789680,
      "nb_read_frames": "N/A",
      "nb_read_packets": "N/A",
      "tags": {
        "creation_time": "2016-02-18 16:38:20",
        "language": "eng",
        "handler_name": "Apple Alias Data Handler"
      },
      "disposition": {
        "default": 1,
        "dub": 0,
        "original": 0,
        "comment": 0,
        "lyrics": 0,
        "karaoke": 0,
        "forced": 0,
        "hearing_impaired": 0,
        "visual_impaired": 0,
        "clean_effects": 0,
        "attached_pic": 0
      }
    },
    {
      "index": 2,
      "codec_name": "unknown",
      "codec_long_name": "unknown",
      "profile": "unknown",
      "codec_type": "data",
      "codec_time_base": "1/60",
      "codec_tag_string": "tmcd",
      "codec_tag": "0x64636d74",
      "id": "N/A",
      "r_frame_rate": "0/0",
      "avg_frame_rate": "0/0",
      "time_base": "1/60000",
      "start_pts": 0,
      "start_time": 0,
      "duration_ts": 137237100,
      "duration": 2287.285,
      "bit_rate": "N/A",
      "max_bit_rate": "N/A",
      "bits_per_raw_sample": "N/A",
      "nb_frames": 1,
      "nb_read_frames": "N/A",
      "nb_read_packets": "N/A",
      "tags": {
        "creation_time": "2016-02-18 16:38:20",
        "language": "eng",
        "handler_name": "Apple Alias Data Handler",
        "reel_name": "time",
        "timecode": "00:01:18:56"
      },
      "disposition": {
        "default": 1,
        "dub": 0,
        "original": 0,
        "comment": 0,
        "lyrics": 0,
        "karaoke": 0,
        "forced": 0,
        "hearing_impaired": 0,
        "visual_impaired": 0,
        "clean_effects": 0,
        "attached_pic": 0
      }
    }
  ],
  "format": {
    "filename": "/Users/pietropassarelli/INCOMING_FILES/autoEdit_demo_videos/RecodeLiveEditing_test/Bowman.mov",
    "nb_streams": 3,
    "nb_programs": 0,
    "format_name": "mov,mp4,m4a,3gp,3g2,mj2",
    "format_long_name": "QuickTime / MOV",
    "start_time": 0,
    "duration": 2287.285,
    "size": 47609151050,
    "bit_rate": 166517599,
    "probe_score": 100,
    "tags": {
      "major_brand": "qt  ",
      "minor_version": "537199360",
      "compatible_brands": "qt  ",
      "creation_time": "2016-02-18 16:38:20",
      "com.apple.proapps.logNote": "Untitled 01",
      "com.apple.proapps.reel": "001",
      "com.apple.proapps.scene": "Scene 01",
      "com.apple.proapps.shot": "01",
      "com.apple.proapps.angle": "01"
    }
  }
}
